<svg xmlns="http://www.w3.org/2000/svg" viewBox="0 0 48 34" role="img" aria-label="Korean flag">
  <rect x="0" y="0" width="48" height="34" fill="#ffffff"/>
  <path d="M24 9a8 8 0 1 1 0 16 4 4 0 1 0 0-8 4 4 0 1 1 0-8z" fill="#cd2e3a"/>
  <path d="M24 25a8 8 0 1 1 0-16 4 4 0 1 0 0 8 4 4 0 1 1 0 8z" fill="#0047a0"/>
  <path d="M11 8h9v1.6h-9zM11 11h9v1.6h-9zM28 21.4h9V23h-9zM28 24.4h9V26h-9z" fill="#111111"/>
  <rect x="0.5" y="0.5" width="47" height="33" rx="4.5" fill="none" stroke="rgba(15,23,42,.18)"/>
</svg>
