<svg xmlns="http://www.w3.org/2000/svg" viewBox="0 0 48 34" role="img" aria-label="Kazakh flag">
  <rect x="0" y="0" width="48" height="34" fill="#00afca"/>
  <circle cx="24" cy="15" r="5" fill="#ffcc00"/>
  <polygon points="24.00,6.00 24.98,10.10 27.44,6.69 26.78,10.84 30.36,8.64 28.16,12.22 32.31,11.56 28.90,14.02 33.00,15.00 28.90,15.98 32.31,18.44 28.16,17.78 30.36,21.36 26.78,19.16 27.44,23.31 24.98,19.90 24.00,24.00 23.02,19.90 20.56,23.31 21.22,19.16 17.64,21.36 19.84,17.78 15.69,18.44 19.10,15.98 15.00,15.00 19.10,14.02 15.69,11.56 19.84,12.22 17.64,8.64 21.22,10.84 20.56,6.69 23.02,10.10" fill="#ffcc00"/>
  <path d="M18 23c4 3 8 3 12 0v3c-4 2-8 2-12 0z" fill="#ffcc00"/>
  <rect x="0.5" y="0.5" width="47" height="33" rx="4.5" fill="none" stroke="rgba(15,23,42,.18)"/>
</svg>
