<svg xmlns="http://www.w3.org/2000/svg" viewBox="0 0 48 34" role="img" aria-label="Malaysian flag">
  <rect x="0" y="0" width="48" height="34" fill="#ffffff"/>
  <rect x="0" y="0" width="48" height="2.43" fill="#cc0001"/>
  <rect x="0" y="4.86" width="48" height="2.43" fill="#cc0001"/>
  <rect x="0" y="9.72" width="48" height="2.43" fill="#cc0001"/>
  <rect x="0" y="14.580000000000002" width="48" height="2.43" fill="#cc0001"/>
  <rect x="0" y="19.44" width="48" height="2.43" fill="#cc0001"/>
  <rect x="0" y="24.3" width="48" height="2.43" fill="#cc0001"/>
  <rect x="0" y="29.160000000000004" width="48" height="2.43" fill="#cc0001"/>
  <rect x="0" y="0" width="24" height="19.5" fill="#010066"/>
  <circle cx="10" cy="9.8" r="5.5" fill="#ffcc00"/>
  <circle cx="12.2" cy="9.8" r="4.8" fill="#010066"/>
  <polygon points="18.50,5.80 18.90,8.05 20.24,6.20 19.62,8.39 21.63,7.31 20.12,9.02 22.40,8.91 20.30,9.80 22.40,10.69 20.12,10.58 21.63,12.29 19.62,11.21 20.24,13.40 18.90,11.55 18.50,13.80 18.10,11.55 16.76,13.40 17.38,11.21 15.37,12.29 16.88,10.58 14.60,10.69 16.70,9.80 14.60,8.91 16.88,9.02 15.37,7.31 17.38,8.39 16.76,6.20 18.10,8.05" fill="#ffcc00"/>
  <rect x="0.5" y="0.5" width="47" height="33" rx="4.5" fill="none" stroke="rgba(15,23,42,.18)"/>
</svg>
