<svg xmlns="http://www.w3.org/2000/svg" viewBox="0 0 48 34" role="img" aria-label="Uzbek flag">
  <rect x="0" y="0" width="48" height="10.5" fill="#0099b5"/>
  <rect x="0" y="10.5" width="48" height="1.5" fill="#ce1126"/>
  <rect x="0" y="12" width="48" height="10" fill="#ffffff"/>
  <rect x="0" y="22" width="48" height="1.5" fill="#ce1126"/>
  <rect x="0" y="23.5" width="48" height="10.5" fill="#1eb53a"/>
  <circle cx="10" cy="5.5" r="3.5" fill="#ffffff"/>
  <circle cx="12" cy="5.5" r="3.1" fill="#0099b5"/>
  <polygon points="20.00,2.70 20.32,3.56 21.24,3.60 20.52,4.17 20.76,5.05 20.00,4.55 19.24,5.05 19.48,4.17 18.76,3.60 19.68,3.56" fill="#ffffff"/>
  <polygon points="25.00,2.70 25.32,3.56 26.24,3.60 25.52,4.17 25.76,5.05 25.00,4.55 24.24,5.05 24.48,4.17 23.76,3.60 24.68,3.56" fill="#ffffff"/>
  <polygon points="30.00,2.70 30.32,3.56 31.24,3.60 30.52,4.17 30.76,5.05 30.00,4.55 29.24,5.05 29.48,4.17 28.76,3.60 29.68,3.56" fill="#ffffff"/>
  <rect x="0.5" y="0.5" width="47" height="33" rx="4.5" fill="none" stroke="rgba(15,23,42,.18)"/>
</svg>
